<svg xmlns="http://www.w3.org/2000/svg" version="1.1" xmlns:xlink="http://www.w3.org/1999/xlink" xmlns:svgjs="http://svgjs.dev/svgjs" width="2000" height="2670" viewBox="0 0 2000 2670"><g transform="matrix(1,0,0,1,-1.4987782289541656,1.080971659918987)"><svg viewBox="0 0 185 247" data-background-color="#ffffff" preserveAspectRatio="xMidYMid meet" height="2670" width="2000" xmlns="http://www.w3.org/2000/svg" xmlns:xlink="http://www.w3.org/1999/xlink"><g id="tight-bounds" transform="matrix(1,0,0,1,0.13863698617825548,-0.09999999999999432)"><svg viewBox="0 0 184.72272602764346 247.2" height="247.2" width="184.72272602764346"><g><svg viewBox="0 0 440.0911898937531 588.9396745122494" height="247.2" width="184.72272602764346"><g transform="matrix(1,0,0,1,22.285594946876586,434.78377250779516)"><svg viewBox="0 0 395.5199999999999 154.15590200445433" height="154.15590200445433" width="395.5199999999999"><g id="textblocktransform"><svg viewBox="0 0 395.5199999999999 154.15590200445433" height="154.15590200445433" width="395.5199999999999" id="textblock"><g><svg viewBox="0 0 395.5199999999999 154.15590200445433" height="154.15590200445433" width="395.5199999999999"><g transform="matrix(1,0,0,1,0,0)"><svg width="395.5199999999999" viewBox="1.34 -37.7 98.64999999999999 38.46" height="154.15590200445433" data-palette-color="#ed3232"><path d="M27.49-9.69L31.2-3.59Q28.76-1.49 25.73-0.37 22.71 0.76 19.46 0.76L19.46 0.76Q16.97 0.76 14.66 0.11 12.35-0.54 10.34-1.72 8.33-2.91 6.67-4.57 5-6.23 3.82-8.24 2.64-10.25 1.99-12.56 1.34-14.87 1.34-17.36L1.34-17.36Q1.34-19.85 1.99-22.17 2.64-24.49 3.82-26.5 5-28.52 6.67-30.18 8.33-31.84 10.34-33.02 12.35-34.2 14.66-34.85 16.97-35.5 19.46-35.5L19.46-35.5Q22.71-35.5 25.73-34.39 28.76-33.28 31.2-31.15L31.2-31.15 27.49-25.05Q25.95-26.71 23.85-27.6 21.75-28.49 19.46-28.49L19.46-28.49Q17.14-28.49 15.11-27.61 13.09-26.73 11.57-25.23 10.06-23.73 9.18-21.69 8.3-19.65 8.3-17.36L8.3-17.36Q8.3-15.06 9.18-13.05 10.06-11.04 11.57-9.52 13.09-8.01 15.11-7.13 17.14-6.25 19.46-6.25L19.46-6.25Q21.75-6.25 23.85-7.14 25.95-8.03 27.49-9.69L27.49-9.69ZM55.34 0L53.15-3.05Q52.34-2.32 51.43-1.67 50.51-1.03 49.51-0.55 48.51-0.07 47.45 0.21 46.38 0.49 45.29 0.49L45.29 0.49Q42.87 0.49 40.74-0.37 38.62-1.22 37.02-2.8 35.42-4.37 34.51-6.63 33.59-8.89 33.59-11.69L33.59-11.69 33.59-26.15 40.23-26.15 40.23-11.69Q40.23-10.38 40.63-9.34 41.04-8.3 41.72-7.59 42.4-6.88 43.32-6.52 44.24-6.15 45.29-6.15L45.29-6.15Q46.31-6.15 47.23-6.63 48.14-7.1 48.83-7.89 49.51-8.67 49.9-9.66 50.29-10.64 50.29-11.69L50.29-11.69 50.29-26.15 56.96-26.15 56.96 0 55.34 0ZM69.89-33.25L69.89-33.25Q69.89-32.32 69.54-31.52 69.18-30.71 68.57-30.11 67.96-29.52 67.15-29.16 66.33-28.81 65.4-28.81L65.4-28.81Q64.47-28.81 63.65-29.16 62.84-29.52 62.24-30.11 61.64-30.71 61.29-31.52 60.93-32.32 60.93-33.25L60.93-33.25Q60.93-34.16 61.29-34.97 61.64-35.79 62.24-36.39 62.84-36.99 63.65-37.34 64.47-37.7 65.4-37.7L65.4-37.7Q66.33-37.7 67.15-37.34 67.96-36.99 68.57-36.39 69.18-35.79 69.54-34.97 69.89-34.16 69.89-33.25ZM68.75-26.15L68.75 0 62.03 0 62.03-26.15 68.75-26.15ZM99.99-13.31L99.99-13.31Q99.99-10.23 98.94-7.69 97.89-5.15 96.09-3.33 94.28-1.51 91.85-0.51 89.42 0.49 86.64 0.49L86.64 0.49Q83.88 0.49 81.45-0.54 79.02-1.56 77.2-3.39 75.38-5.22 74.33-7.75 73.28-10.28 73.28-13.31L73.28-13.31 73.28-36.55 79.97-36.55 79.97-24.34Q80.51-25.02 81.28-25.56 82.05-26.1 82.94-26.44 83.83-26.78 84.78-26.97 85.73-27.15 86.64-27.15L86.64-27.15Q89.42-27.15 91.85-26.11 94.28-25.07 96.09-23.22 97.89-21.36 98.94-18.84 99.99-16.31 99.99-13.31ZM93.28-13.31L93.28-13.31Q93.28-14.82 92.75-16.13 92.23-17.43 91.33-18.38 90.42-19.34 89.21-19.87 88.01-20.41 86.64-20.41L86.64-20.41Q85.27-20.41 84.06-19.81 82.85-19.21 81.95-18.23 81.05-17.24 80.53-15.95 80.02-14.67 80.02-13.31L80.02-13.31Q80.02-11.79 80.53-10.5 81.05-9.2 81.95-8.25 82.85-7.3 84.06-6.75 85.27-6.2 86.64-6.2L86.64-6.2Q88.01-6.2 89.21-6.75 90.42-7.3 91.33-8.25 92.23-9.2 92.75-10.5 93.28-11.79 93.28-13.31Z" opacity="1" transform="matrix(1,0,0,1,0,0)" fill="#ed3232" class="wordmark-text-0" data-fill-palette-color="primary" id="text-0"></path></svg></g></svg></g></svg></g></svg></g><g><svg viewBox="0 0 440.0911898937531 398.3912637861916" height="398.3912637861916" width="440.0911898937531"><g><svg xmlns="http://www.w3.org/2000/svg" xmlns:xlink="http://www.w3.org/1999/xlink" version="1.1" x="8" y="0" viewBox="0 1.515 50 46.96999999999999" enable-background="new 0 0 50 50" xml:space="preserve" height="398.3912637861916" width="424.0911898937531" class="icon-icon-0" data-fill-palette-color="accent" id="icon-0"><g fill="#ed3232" data-fill-palette-color="accent"><path fill-rule="evenodd" clip-rule="evenodd" d="M8.814 40.598c1.465 0 2.665 1.063 2.665 2.555 0 1.463-1.189 2.556-2.63 2.556-1.41-0.018-2.564-1.134-2.564-2.556C6.284 41.744 7.418 40.634 8.814 40.598M41.051 37.823c-1.411 0-2.555-1.144-2.555-2.555 0-1.411 1.144-2.555 2.555-2.555 1.411 0 2.555 1.144 2.555 2.555C43.606 36.679 42.462 37.823 41.051 37.823zM38.495 43.154c0-1.411 1.144-2.555 2.555-2.555 1.411 0 2.555 1.144 2.555 2.555 0 1.411-1.144 2.555-2.555 2.555C39.64 45.709 38.495 44.565 38.495 43.154zM41.051 29.937c-1.411 0-2.555-1.144-2.555-2.555 0-1.411 1.144-2.555 2.555-2.555 1.411 0 2.555 1.144 2.555 2.555C43.606 28.793 42.462 29.937 41.051 29.937zM11.479 27.381c0 1.463-1.189 2.556-2.63 2.556-1.41-0.018-2.564-1.134-2.564-2.556 0-1.409 1.133-2.519 2.53-2.555C10.279 24.826 11.479 25.889 11.479 27.381zM31.661 45.709v-5.111h4.743c-0.421 0.759-0.659 1.63-0.659 2.556 0 0.925 0.238 1.796 0.658 2.555H31.661zM31.661 37.823v-5.11h4.743c-0.421 0.759-0.659 1.63-0.659 2.555 0 0.925 0.238 1.796 0.659 2.555H31.661zM13.595 40.598h4.744v5.111h-4.743c0.42-0.759 0.659-1.629 0.659-2.555C14.254 42.228 14.016 41.358 13.595 40.598zM38.83 15.321l-4.495-4.488V5.299h4.495V15.321zM3.535 26.855c-0.087 1.775 0.383 3.244 1.737 4.47-1.118 1.01-1.763 2.429-1.763 3.943 0 1.517 0.642 2.928 1.762 3.943-1.121 1.015-1.762 2.427-1.762 3.943 0 1.471 0.604 2.805 1.578 3.769 0.981 0.97 2.35 1.562 3.725 1.562l32.375-0.001c2.92-0.043 5.303-2.395 5.303-5.33 0-1.517-0.641-2.928-1.762-3.943 1.121-1.015 1.762-2.426 1.762-3.943 0-1.514-0.644-2.933-1.763-3.943 1.262-1.143 1.904-2.776 1.737-4.47l1.583 1.576L50 26.469l-8.395-8.377V2.523H31.559v5.539L25 1.515 0 26.469l1.953 1.962L3.535 26.855zM8.814 32.712c1.465 0 2.665 1.063 2.665 2.555 0 1.463-1.189 2.556-2.63 2.556-1.41-0.018-2.564-1.134-2.564-2.556C6.284 33.858 7.418 32.748 8.814 32.712zM18.339 37.823h-4.744c0.42-0.759 0.659-1.63 0.659-2.555 0-0.925-0.239-1.796-0.659-2.555h4.744V37.823zM33.752 14.163H16.248L25 5.426 33.752 14.163zM41.682 22.079L8.347 22.05l5.12-5.111h23.065L41.682 22.079zM36.404 29.937H13.595c0.42-0.759 0.659-1.63 0.659-2.556 0-0.925-0.239-1.796-0.659-2.555h22.808c-0.42 0.759-0.658 1.629-0.658 2.555C35.745 28.307 35.984 29.178 36.404 29.937zM21.115 45.709V32.712h7.77v12.997H21.115zM21.998 39.631h2.25v-2.25h-2.25V39.631z" fill="#ed3232" data-fill-palette-color="accent"></path></g></svg></g></svg></g><g></g></svg></g><defs></defs></svg><rect width="184.72272602764346" height="247.2" fill="none" stroke="none" visibility="hidden"></rect></g></svg></g></svg>