<?xml version="1.0"?>
<svg width="128" height="128" xmlns="http://www.w3.org/2000/svg" xmlns:svg="http://www.w3.org/2000/svg" version="1.1">
 <g class="layer">
  <title>Layer 1</title>
  <g id="svg_5" transform="matrix(0.872083 0 0 0.933857 16.1017 2.74817)">
   <svg height="144" id="svg_26" preserveAspectRatio="xMidYMid meet" viewBox="0 0 95 90" width="145" x="-17.46" xmlns="http://www.w3.org/2000/svg" xmlns:xlink="http://www.w3.org/1999/xlink" y="-7.45">
    <g id="svg_1" transform="matrix(1,0,0,1,-0.24049999999999727,0.15257430000001193)">
     <g id="svg_9">
      <svg height="89.69" id="svg_27" viewBox="0 0 95.481 89.69485139999998" width="95.48">
       <g id="svg_13">
        <svg height="89.69" id="svg_28" viewBox="0 0 95.481 89.69485139999998" width="95.48">
         <g id="svg_17">
          <svg height="89.69" id="svg_29" viewBox="0 0 95.481 89.69485139999998" width="95.48">
           <g id="svg_14">
            <svg height="89.69" id="svg_18" viewBox="0 0 95.481 89.69485139999998" width="95.48">
             <g id="svg_21">
              <svg height="89.69" id="svg_30" viewBox="0 0 95.481 89.69485139999998" width="95.48">
               <g id="svg_23">
                <svg height="89.69" id="svg_31" viewBox="0 0 95.481 89.69485139999998" width="95.48">
                 <g id="svg_25">
                  <svg class="icon-icon-0" data-fill-palette-color="accent" enable-background="new 0 0 50 50" height="89.69" id="svg_24" version="1.1" viewBox="0 1.515 50 46.96999999999999" width="95.48" x="0" xml:space="preserve" xmlns="http://www.w3.org/2000/svg" xmlns:xlink="http://www.w3.org/1999/xlink" y="0">
                   <g data-fill-palette-color="accent" fill="#ed3232" id="svg_32">
                    <path clip-rule="evenodd" d="m8.81,40.6c1.47,0 2.67,1.06 2.67,2.55c0,1.47 -1.19,2.56 -2.63,2.56c-1.41,-0.02 -2.56,-1.14 -2.56,-2.56c-0.01,-1.41 1.13,-2.52 2.52,-2.55m32.24,-2.78c-1.41,0 -2.55,-1.14 -2.55,-2.55c0,-1.41 1.14,-2.56 2.55,-2.56c1.41,0 2.56,1.15 2.56,2.56c0,1.41 -1.15,2.55 -2.56,2.55zm-2.56,5.33c0,-1.41 1.15,-2.55 2.56,-2.55c1.41,0 2.55,1.14 2.55,2.55c0,1.42 -1.14,2.56 -2.55,2.56c-1.41,0 -2.56,-1.15 -2.56,-2.56zm2.56,-13.21c-1.41,0 -2.55,-1.15 -2.55,-2.56c0,-1.41 1.14,-2.55 2.55,-2.55c1.41,0 2.56,1.14 2.56,2.55c0,1.41 -1.15,2.56 -2.56,2.56zm-29.57,-2.56c0,1.46 -1.19,2.56 -2.63,2.56c-1.41,-0.02 -2.56,-1.14 -2.56,-2.56c0,-1.41 1.13,-2.52 2.53,-2.55c1.46,0 2.66,1.06 2.66,2.55zm20.18,18.33l0,-5.11l4.74,0c-0.42,0.76 -0.65,1.63 -0.65,2.55c0,0.93 0.23,1.8 0.65,2.56l-4.74,0zm0,-7.89l0,-5.11l4.74,0c-0.42,0.76 -0.65,1.63 -0.65,2.56c0,0.92 0.23,1.79 0.65,2.55l-4.74,0zm-18.07,2.78l4.75,0l0,5.11l-4.74,0c0.42,-0.76 0.65,-1.63 0.65,-2.56c0,-0.92 -0.23,-1.79 -0.65,-2.55l-0.01,0zm25.24,-25.28l-4.49,-4.49l0,-5.53l4.49,0l0,10.02zm-35.3,11.54c-0.08,1.77 0.39,3.24 1.74,4.46c-1.12,1.02 -1.76,2.43 -1.76,3.95c0,1.52 0.64,2.93 1.76,3.94c-1.12,1.02 -1.76,2.43 -1.76,3.94c0,1.48 0.6,2.81 1.58,3.77c0.98,0.97 2.35,1.56 3.72,1.56l32.38,0c2.92,-0.04 5.3,-2.39 5.3,-5.33c0,-1.51 -0.64,-2.92 -1.76,-3.94c1.12,-1.01 1.76,-2.43 1.76,-3.94c0,-1.52 -0.64,-2.93 -1.76,-3.95c1.26,-1.14 1.9,-2.77 1.73,-4.46l1.59,1.57l1.95,-1.96l-8.39,-8.38l0,-15.57l-10.05,0l0,5.54l-6.56,-6.54l-25,24.95l1.95,1.96l1.59,-1.57l-0.01,0zm5.28,5.85c1.47,0 2.67,1.07 2.67,2.56c0,1.46 -1.19,2.55 -2.63,2.55c-1.41,-0.02 -2.56,-1.13 -2.56,-2.55c-0.01,-1.41 1.13,-2.52 2.52,-2.56zm9.53,5.11l-4.75,0c0.42,-0.76 0.66,-1.63 0.66,-2.55c0,-0.93 -0.24,-1.8 -0.66,-2.56l4.75,0l0,5.11zm15.41,-23.66l-17.5,0l8.75,-8.73l8.75,8.73zm7.93,7.92l-33.33,-0.03l5.12,-5.11l23.06,0l5.15,5.14zm-5.28,7.86l-22.81,0c0.42,-0.76 0.66,-1.63 0.66,-2.56c0,-0.92 -0.24,-1.79 -0.66,-2.55l22.81,0c-0.42,0.76 -0.66,1.63 -0.66,2.55c0,0.93 0.24,1.8 0.66,2.56zm-15.29,15.77l0,-13l7.77,0l0,13l-7.77,0zm0.89,-6.08l2.25,0l0,-2.25l-2.25,0l0,2.25z" data-fill-palette-color="accent" fill="#ed3232" fill-rule="evenodd" id="svg_33"/>
                   </g>
                  </svg>
                 </g>
                </svg>
               </g>
              </svg>
             </g>
            </svg>
           </g>
          </svg>
         </g>
         <g id="svg_34"/>
        </svg>
       </g>

      </svg>
     </g>
     <rect fill="none" height="89.69" id="svg_35" width="95.48"/>
    </g>
   </svg>
  </g>
 </g>
</svg>